<?xml version="1.0" encoding="utf-8"?>
<svg version="1.1" xmlns:xlink="http://www.w3.org/1999/xlink" width="167px" height="107px" xmlns="http://www.w3.org/2000/svg">
  <g transform="matrix(1 0 0 1 -1236 -778 )">
    <path d="M 0.324310193228276 30.9845559845562  C -0.51969636896844 17.9215405858864  0.979018821351469 9.50193050193052  0.979018821351469 9.50193050193052  C 0.979018821351469 9.50193050193052  69.6597902839239 37.521857966923  92.0664146868251 30.9845559845562  C 114.745969993491 24.3676243486475  136.761569781267 -3.81467451662685  147.522678185745 0.722972972973062  C 171.919090886848 11.0102330476258  166.202564780049 39.3073714780967  165.866399259488 42.1389961389961  C 165.591345726194 44.4558559009375  162.410355858593 53.8385545990238  159.580067880284 59.8001930501932  C 156.797466404468 65.6613860028652  155.086914714312 67.3881614588715  154.736501079914 68.6824324324323  C 154.418385978799 69.8574070943957  148.129682570351 78.9029024853703  138.763036099969 86.8600386100386  C 134.892368271272 90.1482411597679  130.330039083085 93.0184346745362  125.468991052144 95.9488416988417  C 113.978906211339 102.875460220824  99.716376050631 106.151991733461  86.2051835853132 106.638513513514  C 71.8086255657904 107.156916241642  56.864882668276 103.45147708195  44.8802838630053 97.1882239382239  C 38.8861884228865 94.055658741915  30.3468247792282 88.3600467306441  22.9296513421783 80.5598455598456  C 21.5339098601291 79.092027066074  13.8462083181825 70.8714412543368  8.50200555384137 59.8001930501932  C 6.21400659967632 55.0602897513508  4.1180196924081 49.2938231561358  2.73094723850666 43.9980694980695  C 1.14859771395758 37.9567605099192  0.427515337370349 32.5819018436236  0.324310193228276 30.9845559845562  Z " fill-rule="nonzero" fill="#2b4989" stroke="none" transform="matrix(1 0 0 1 1236 778 )" />
  </g>
</svg>