<?xml version="1.0" encoding="utf-8"?>
<svg version="1.1" xmlns:xlink="http://www.w3.org/1999/xlink" width="166px" height="106px" xmlns="http://www.w3.org/2000/svg">
  <g transform="matrix(1 0 0 1 -1236 -778 )">
    <path d="M 0.324470617432118 29.9239395416871  C -0.519953443454601 16.8505073976195  0.97950310559005 8.42418332520714  0.97950310559005 8.42418332520714  C 0.97950310559005 8.42418332520714  9.12211055201088 28.571089515246  29.4108695652175 26.3191126279864  C 53.1420018381251 23.6850450956991  57.916453871334 -0.04309665693168  71.3619565217391 0.0904436860066377  C 82.3831621674403 0.199905981302811  90.5564852334269 17.743449854574  111.959782608696 26.7713310580205  C 136.368263308791 37.0667944276834  166.284779014124 38.2533918374777  165.948447204969 41.0872745002438  C 165.673257612911 43.4059817788209  162.490694227802 52.7961624541155  159.65900621118 58.7625548512923  C 156.875028285793 64.6284216524483  155.163630449265 66.3565740784522  154.813043478261 67.6518771331056  C 154.494771017424 68.8277887465712  148.202956821036 77.8804972211726  138.831677018634 85.8439785470505  C 134.959094514363 89.1348031842326  130.394508511426 92.0072854565486  125.531055900621 94.9400292540224  C 114.035287341723 101.872171219055  99.7657020372219 105.151315512394  86.2478260869566 105.638225255973  C 71.8441466250392 106.157041370219  56.8930116131002 102.448647409118  44.9024844720497 96.1803998049729  C 38.9054239756081 93.0453366299744  30.3618362260079 87.3451828082257  22.9409937888199 79.5387615797171  C 21.5445618853138 78.0697726141159  13.8530575230262 69.8426315204002  8.50621118012419 58.7625548512923  C 6.21708043787976 54.0188718458224  4.12005672375809 48.2478069390744  2.73229813664598 42.9478303266699  C 1.14916588257433 36.9017038614149  0.427726813324836 31.5225591606499  0.324470617432118 29.9239395416871  Z " fill-rule="nonzero" fill="#1591e3" stroke="none" transform="matrix(1 0 0 1 1236 778 )" />
  </g>
</svg>