<?xml version="1.0" encoding="utf-8"?>
<svg version="1.1" xmlns:xlink="http://www.w3.org/1999/xlink" width="166px" height="113px" xmlns="http://www.w3.org/2000/svg">
  <g transform="matrix(1 0 0 1 -1236 -773 )">
    <path d="M 0.324470617432118 36.8388278388278  C -0.519953443454601 23.7507695158377  0.97950310559005 15.3150183150182  0.97950310559005 15.3150183150182  C 0.97950310559005 15.3150183150182  1.86297537296513 -4.74858613646867  12.2695652173913 1.53926282051281  C 17.9732487420533 4.9855311022117  37.113703941131 49.8735027225469  44.2967391304348 49.0753205128206  C 68.0278714033425 46.438306061729  100.769714740899 10.0073358970019  114.215217391304 10.1410256410254  C 137.80508853645 10.3755816793488  166.57970149687 42.6898450375349  165.948447204969 48.014652014652  C 165.673257612911 50.3359533960746  162.490694227802 59.7366395347517  159.65900621118 65.7097069597069  C 156.875028285793 71.5821363235036  155.163630449265 73.3122221566119  154.813043478261 74.6089743589746  C 154.494771017424 75.7862015484465  148.202956821036 84.8490379322631  138.831677018634 92.8214285714284  C 134.959094514363 96.1159348883271  130.394508511426 98.9916308109841  125.531055900621 101.927655677655  C 114.035287341723 108.867553123236  99.7657020372219 112.150366028661  86.2478260869566 112.637820512821  C 71.8441466250392 113.157217063576  56.8930116131002 109.444674258239  44.9024844720497 103.169413919414  C 38.9054239756081 100.030843326131  30.3618362260079 94.3243123366454  22.9409937888199 86.5091575091574  C 21.5445618853138 85.0385250810582  13.8530575230262 76.8021796991088  8.50621118012419 65.7097069597069  C 6.21708043787976 60.9607168584705  4.12005672375809 55.183195450708  2.73229813664598 49.8772893772892  C 1.14916588257433 43.8243986800794  0.427726813324836 38.4392359473255  0.324470617432118 36.8388278388278  Z " fill-rule="nonzero" fill="#43b6f7" stroke="none" transform="matrix(1 0 0 1 1236 773 )" />
  </g>
</svg>