<?xml version="1.0" encoding="utf-8"?>
<svg version="1.1" xmlns:xlink="http://www.w3.org/1999/xlink" width="169px" height="169px" xmlns="http://www.w3.org/2000/svg">
  <g transform="matrix(1 0 0 1 -1235 -715 )">
    <path d="M 1319.5 716  C 1366.26 716  1403 752.74  1403 799.5  C 1403 846.26  1366.26 883  1319.5 883  C 1272.74 883  1236 846.26  1236 799.5  C 1236 752.74  1272.74 716  1319.5 716  Z " fill-rule="nonzero" fill="#ffffff" stroke="none" fill-opacity="0" />
    <path d="M 1319.5 716  C 1366.26 716  1403 752.74  1403 799.5  C 1403 846.26  1366.26 883  1319.5 883  C 1272.74 883  1236 846.26  1236 799.5  C 1236 752.74  1272.74 716  1319.5 716  Z " stroke-width="2" stroke="#33ffff" fill="none" />
  </g>
</svg>