<?xml version="1.0" encoding="utf-8"?>
<svg version="1.1" xmlns:xlink="http://www.w3.org/1999/xlink" width="168px" height="111px" xmlns="http://www.w3.org/2000/svg">
  <g transform="matrix(1 0 0 1 -1235 -774 )">
    <path d="M 0.681740929296091 34.9683573755236  C -0.158248405290033 21.9025582967484  0.358974358974353 19.6148208469055  0.358974358974353 19.6148208469055  C 0.358974358974353 19.6148208469055  13.1301923890216 0.00285029189672553  30.9615384615385 0.180781758957595  C 51.1123988867397 0.381858679534453  74.8057298710623 36.9934772849621  99.6153846153846 37.2410423452767  C 123.081367033478 37.475199467274  144.483006755761 20.4152922776507  155.25641025641 15.5472312703581  C 160.084204328644 13.3657483181174  166.974358974359 15.1340158213122  166.974358974359 15.1340158213122  C 166.974358974359 15.1340158213122  168.156895537789 24.1290289498353  167.384615384615 33.4187994416008  C 166.999727984394 38.0486162231624  166.063836521446 40.8094235778704  165.435897435897 46.1251744997674  C 165.162153078027 48.4425279759265  161.996303803992 57.8272260922866  159.179487179487 63.7901349464868  C 156.410130083489 69.6525768976271  154.707720125621 71.3797203230747  154.358974358974 72.6742671009772  C 154.042373393916 73.8494921456807  147.783602398436 82.8969150981561  138.461538461539 90.8557468590039  C 134.609293894424 94.1446501124946  130.068680076241 97.0154552548498  125.230769230769 99.9464867380179  C 113.795373877154 106.874581296703  99.6007292430814 110.151811026046  86.1538461538462 110.638436482085  C 71.82581159488 111.156949679911  56.9531965999946 107.450720904884  45.025641025641 101.186133085156  C 39.0600757496008 98.0529003508286  30.5613570119695 92.3560746257737  23.1794871794872 84.5542112610516  C 21.7903890240068 83.0860799806062  14.1392787223183 74.863742392538  8.82051282051276 63.7901349464868  C 6.54340408093068 59.0492215918409  4.45739346632721 53.2815261839936  3.07692307692302 47.9846440204745  C 1.50210507936032 41.9420476517977  0.784454846742652 36.5660436230658  0.681740929296091 34.9683573755236  Z " fill-rule="nonzero" fill="#294f99" stroke="none" transform="matrix(1 0 0 1 1235 774 )" />
  </g>
</svg>