<?xml version="1.0" encoding="utf-8"?>
<svg version="1.1" xmlns:xlink="http://www.w3.org/1999/xlink" width="31px" height="28px" xmlns="http://www.w3.org/2000/svg">
  <g transform="matrix(1 0 0 1 -38 -89 )">
    <path d="M 30.515625 19.1770833333333  C 30.8385416666667 19.5173611111111  31 19.9305555555556  31 20.4166666666667  L 31 26.25  C 31 26.7361111111111  30.8385416666667 27.1493055555556  30.515625 27.4895833333333  C 30.1927083333333 27.8298611111111  29.8005952380952 28  29.3392857142857 28  L 23.8035714285714 28  C 23.3422619047619 28  22.9501488095238 27.8298611111111  22.6272321428571 27.4895833333333  C 22.3043154761905 27.1493055555556  22.1428571428571 26.7361111111111  22.1428571428571 26.25  L 22.1428571428571 20.4166666666667  C 22.1428571428571 19.9305555555556  22.3043154761905 19.5173611111111  22.6272321428571 19.1770833333333  C 22.9501488095238 18.8368055555556  23.3422619047619 18.6666666666667  23.8035714285714 18.6666666666667  L 25.4642857142857 18.6666666666667  L 25.4642857142857 15.1666666666667  L 16.6071428571429 15.1666666666667  L 16.6071428571429 18.6666666666667  L 18.2678571428571 18.6666666666667  C 18.7291666666667 18.6666666666667  19.1212797619048 18.8368055555556  19.4441964285714 19.1770833333333  C 19.7671130952381 19.5173611111111  19.9285714285714 19.9305555555556  19.9285714285714 20.4166666666667  L 19.9285714285714 26.25  C 19.9285714285714 26.7361111111111  19.7671130952381 27.1493055555556  19.4441964285714 27.4895833333333  C 19.1212797619048 27.8298611111111  18.7291666666667 28  18.2678571428571 28  L 12.7321428571429 28  C 12.2708333333333 28  11.8787202380952 27.8298611111111  11.5558035714286 27.4895833333333  C 11.2328869047619 27.1493055555556  11.0714285714286 26.7361111111111  11.0714285714286 26.25  L 11.0714285714286 20.4166666666667  C 11.0714285714286 19.9305555555556  11.2328869047619 19.5173611111111  11.5558035714286 19.1770833333333  C 11.8787202380952 18.8368055555556  12.2708333333333 18.6666666666667  12.7321428571429 18.6666666666667  L 14.3928571428571 18.6666666666667  L 14.3928571428571 15.1666666666667  L 5.53571428571429 15.1666666666667  L 5.53571428571429 18.6666666666667  L 7.19642857142857 18.6666666666667  C 7.6577380952381 18.6666666666667  8.04985119047619 18.8368055555556  8.37276785714286 19.1770833333333  C 8.69568452380952 19.5173611111111  8.85714285714286 19.9305555555556  8.85714285714286 20.4166666666667  L 8.85714285714286 26.25  C 8.85714285714286 26.7361111111111  8.69568452380952 27.1493055555556  8.37276785714286 27.4895833333333  C 8.04985119047619 27.8298611111111  7.6577380952381 28  7.19642857142857 28  L 1.66071428571429 28  C 1.19940476190476 28  0.807291666666667 27.8298611111111  0.484375 27.4895833333333  C 0.161458333333333 27.1493055555556  0 26.7361111111111  0 26.25  L 0 20.4166666666667  C 0 19.9305555555556  0.161458333333333 19.5173611111111  0.484375 19.1770833333333  C 0.807291666666667 18.8368055555556  1.19940476190476 18.6666666666667  1.66071428571429 18.6666666666667  L 3.32142857142857 18.6666666666667  L 3.32142857142857 15.1666666666667  C 3.32142857142857 14.5347222222222  3.5405505952381 13.9878472222222  3.97879464285714 13.5260416666667  C 4.41703869047619 13.0642361111111  4.93601190476191 12.8333333333333  5.53571428571429 12.8333333333333  L 14.3928571428571 12.8333333333333  L 14.3928571428571 9.33333333333333  L 12.7321428571429 9.33333333333333  C 12.2708333333333 9.33333333333333  11.8787202380952 9.16319444444444  11.5558035714286 8.82291666666667  C 11.2328869047619 8.48263888888889  11.0714285714286 8.06944444444444  11.0714285714286 7.58333333333333  L 11.0714285714286 1.75  C 11.0714285714286 1.26388888888889  11.2328869047619 0.850694444444441  11.5558035714286 0.510416666666666  C 11.8787202380952 0.170138888888888  12.2708333333333 0  12.7321428571429 0  L 18.2678571428571 0  C 18.7291666666667 0  19.1212797619048 0.170138888888888  19.4441964285714 0.510416666666666  C 19.7671130952381 0.850694444444441  19.9285714285714 1.26388888888889  19.9285714285714 1.75  L 19.9285714285714 7.58333333333333  C 19.9285714285714 8.06944444444444  19.7671130952381 8.48263888888889  19.4441964285714 8.82291666666667  C 19.1212797619048 9.16319444444444  18.7291666666667 9.33333333333333  18.2678571428571 9.33333333333333  L 16.6071428571429 9.33333333333333  L 16.6071428571429 12.8333333333333  L 25.4642857142857 12.8333333333333  C 26.0639880952381 12.8333333333333  26.5829613095238 13.0642361111111  27.0212053571429 13.5260416666667  C 27.4594494047619 13.9878472222222  27.6785714285714 14.5347222222222  27.6785714285714 15.1666666666667  L 27.6785714285714 18.6666666666667  L 29.3392857142857 18.6666666666667  C 29.8005952380952 18.6666666666667  30.1927083333333 18.8368055555556  30.515625 19.1770833333333  Z " fill-rule="nonzero" fill="#027db4" stroke="none" transform="matrix(1 0 0 1 38 89 )" />
  </g>
</svg>